# xmcd CD database file
#
# Track frame offsets:
#	150
#	34930
#	60617
#	81050
#	107257
#	135190
#	158142
#	186330
#
# Disc length: 2850 seconds
#
# Revision: 0
# Processed by: cddbd v1.5PL3 Copyright (c) Steve Scherf et al.
# Submitted via: CDex 1.50
#
DISCID=5a0b2008
DTITLE=Iwasaki Daisuke Trio - DAISUKE
DYEAR=1900
DGENRE=Jazz
TTITLE0=Mass Ave 5am
TTITLE1=Tiny Souvenir
TTITLE2=Donna Lee
TTITLE3=Never Say Good-bye
TTITLE4=You are Everything
TTITLE5=Star Crossed Lovers
TTITLE6=Surf Mail
TTITLE7=3B
EXTD=
EXTT0=
EXTT1=
EXTT2=
EXTT3=
EXTT4=
EXTT5=
EXTT6=
EXTT7=
PLAYORDER=
